<?xml version="1.0" standalone="no"?>
<!DOCTYPE svg PUBLIC "-//W3C//DTD SVG 1.1//EN" "http://www.w3.org/Graphics/SVG/1.1/DTD/svg11.dtd" >
<svg xmlns="http://www.w3.org/2000/svg">
<metadata>Generated by IcoMoon</metadata>
<defs>
<font id="icomoon" horiz-adv-x="1024">
<font-face units-per-em="1024" ascent="960" descent="-64" />
<missing-glyph horiz-adv-x="1024" />
<glyph unicode="&#x20;" horiz-adv-x="512" d="" />
<glyph unicode="&#xe900;" glyph-name="previous" d="M109.8-64h73.2c60.6 0 109.8 49.2 109.8 109.8v355.6l731.2-465.4v1024l-57.6-36.6h-15.6v-10l-658.2-418.8v355.6c0 60.6-49.2 109.8-109.8 109.8h-73c-60.6 0-109.8-49.2-109.8-109.8v-804.6c0-60.4 49.2-109.6 109.8-109.6zM950.8 838v-780.2l-585 390.2 585 390zM73.2 850.2c0 20.2 16.4 36.6 36.6 36.6h73.2c20.2 0 36.6-16.4 36.6-36.6v-804.6c0-20.2-16.4-36.6-36.6-36.6h-73.2c-20.2 0-36.6 16.4-36.6 36.6v804.6z" />
<glyph unicode="&#xe901;" glyph-name="next" d="M914.2 960h-73.2c-60.6 0-109.8-49.2-109.8-109.8v-355.6l-731.2 465.4v-1024l57.6 36.6h15.6v10l658.2 418.8v-355.8c0-60.6 49.2-109.8 109.8-109.8h73.2c60.6 0 109.8 49.2 109.8 109.8v804.6c-0.2 60.6-49.4 109.8-110 109.8zM73.2 58v780.2l585.2-390-585.2-390.2zM950.8 45.8c0-20.2-16.4-36.6-36.6-36.6h-73.2c-20.2 0-36.6 16.4-36.6 36.6v804.4c0 20.2 16.4 36.6 36.6 36.6h73.2c20.2 0 36.6-16.4 36.6-36.6v-804.4z" />
<glyph unicode="&#xe902;" glyph-name="add" d="M987.4 484.6h-438.8v438.8c0 20.2-16.4 36.6-36.6 36.6s-36.6-16.4-36.6-36.6v-438.8h-438.8c-20.2 0-36.6-16.4-36.6-36.6s16.4-36.6 36.6-36.6h438.8v-438.8c0-20.2 16.4-36.6 36.6-36.6s36.6 16.4 36.6 36.6v438.8h438.8c20.2 0 36.6 16.4 36.6 36.6s-16.4 36.6-36.6 36.6z" />
<glyph unicode="&#xe903;" glyph-name="playlist" d="M581.4-54c-38.6 0-76.4 14-105.6 40-34.4 30.4-54 74-54 119.8 0 80.4 60.2 148.4 139.8 158.4l181.4 22.6v461.6c0 0.6 0 1 0 1.6v159.8c0 12 5.4 23.4 14.6 31 9.4 7.6 21.6 10.6 33.4 8.4l200.8-40.2c18.8-3.8 32.2-20.2 32.2-39.4v-160.6c0-12-5.4-23.4-14.6-31-9.4-7.6-21.4-10.8-33.4-8.4l-152.8 30.6v-448.2c0-0.4 0-0.8 0-1.2v-134.8c0-80.4-60.2-148.6-139.8-158.4l-82.2-10.2c-6.6-1-13.2-1.4-19.8-1.4zM743 206l-171.4-21.4c-39.6-5-69.6-38.8-69.6-78.8 0-23 9.6-44.2 26.8-59.6 17.4-15.2 39.4-22 62.4-19.2l82.2 10.2c39.6 5 69.6 38.8 69.6 78.8v90zM823.2 782l120.4-24v78.8l-120.4 24v-78.8zM562.2 789.4h-522c-22.2 0-40.2 18-40.2 40s18 40.2 40.2 40.2h522c22.2 0 40.2-18 40.2-40.2s-18-40-40.2-40zM562.2 548.4h-522c-22.2 0-40.2 18-40.2 40.2s18 40.2 40.2 40.2h522c22.2 0 40.2-18 40.2-40.2s-18-40.2-40.2-40.2zM361.4 307.4h-321.2c-22.2 0-40.2 18-40.2 40.2s18 40.2 40.2 40.2h321.2c22.2 0 40.2-18 40.2-40.2s-18-40.2-40.2-40.2z" />
<glyph unicode="&#xe904;" glyph-name="pause" d="M329.2 960h-73.2c-60.6 0-109.8-49.2-109.8-109.8v-804.6c0-60.6 49.2-109.8 109.8-109.8h73.2c60.6 0 109.8 49.2 109.8 109.8v804.6c-0.2 60.6-49.2 109.8-109.8 109.8zM365.8 45.8c0-20.2-16.4-36.6-36.6-36.6h-73.2c-20.2 0-36.6 16.4-36.6 36.6v804.4c0 20.2 16.4 36.6 36.6 36.6h73.2c20.2 0 36.6-16.4 36.6-36.6v-804.4zM768 960h-73.2c-60.6 0-109.8-49.2-109.8-109.8v-804.6c0-60.6 49.2-109.8 109.8-109.8h73.2c60.6 0 109.8 49.2 109.8 109.8v804.6c0 60.6-49.2 109.8-109.8 109.8zM804.6 45.8c0-20.2-16.4-36.6-36.6-36.6h-73.2c-20.2 0-36.6 16.4-36.6 36.6v804.4c0 20.2 16.4 36.6 36.6 36.6h73.2c20.2 0 36.6-16.4 36.6-36.6v-804.4z" />
<glyph unicode="&#xe905;" glyph-name="bulle" d="M512 540.8c-35.2 0-63.6-28.6-63.6-63.6 0-35.2 28.6-63.6 63.6-63.6 35.2 0 63.6 28.4 63.6 63.6s-28.4 63.6-63.6 63.6zM257.6 540.8c-35.2 0-63.6-28.6-63.6-63.6 0-35.2 28.6-63.6 63.6-63.6 35.2 0 63.6 28.4 63.6 63.6s-28.6 63.6-63.6 63.6zM925.6 890.8h-827.2c-52.6 0-95.4-42.8-95.4-95.4v-636.2c0-52.6 42.8-95.4 95.4-95.4h286l127.6-127.8 127.6 127.6h286c52.6 0 95.4 42.8 95.4 95.4v636.4c0 52.6-42.8 95.4-95.4 95.4zM957.4 159c0-17.6-14.2-31.8-31.8-31.8h-317.8l-95.8-95.8-95.8 95.8h-317.8c-17.6 0-31.8 14.2-31.8 31.8v636.4c0 17.6 14.2 31.8 31.8 31.8h827.2c17.6 0 31.8-14.2 31.8-31.8v-636.4zM766.4 540.8c-35.2 0-63.6-28.6-63.6-63.6 0-35.2 28.6-63.6 63.6-63.6 35.2 0 63.6 28.4 63.6 63.6 0.2 35.2-28.4 63.6-63.6 63.6z" />
<glyph unicode="&#xe906;" glyph-name="replay" d="M64 448c0 106 86 192 192 192h256v64l-160 192-32-64 106.6-128h-170.6c-141.4 0-256-114.6-256-256s114.6-256 256-256h64v64h-64c-106 0-192 86-192 192zM768 704h-128v-64h128c106 0 192-86 192-192s-86-192-192-192h-320v-64l160-192 32 64-106.6 128h234.6c141.4 0 256 114.6 256 256s-114.6 256-256 256z" />
<glyph unicode="&#xe907;" glyph-name="shuffle" d="M360.4 503.8l44.4 54.2-132 180h-273.2v-68h239l121.8-166.2zM784.8 226.2h-136.6l-118.2 161.2-45.2-53.4 129.2-176h170.6v-102.4l239 136.4-239 136.6v-102.4zM784.8 670v-102.4l238.8 136.4-238.8 136.4v-102.4h-170.8l-375.4-512h-239v-68h273l375.4 512h136.8z" />
<glyph unicode="&#xe908;" glyph-name="pen" d="M785 938.6c-93.4 53.4-156.4-10.6-210.4-103l-65-111.6-23.8-40.6-285.2-489.6c-54-92.4-1.2-259.8-1.2-259.8s172.6 38.4 226.6 131l374.4 641.6c53.6 92.6 77.8 178.6-15.4 232zM369.6 97.2c-36-61.6-121.4-79.4-121.4-79.4s-27.2 82.2 8.8 143.8l276.4 474.4 112.6-64.4-276.4-474.4zM566 691.8l32.6 55.8 112.6-64.4-32.6-55.8-112.6 64.4zM743.6 739l-112.6 64.4c36 61.6 59.2 115 121.4 79.4s27.2-82.2-8.8-143.8z" />
<glyph unicode="&#xe909;" glyph-name="ring" d="M512-64c-92.6 0-168 75.4-168 168 0 6.6 0.4 13 1.2 19.6h-251.4v86h62.6v363.4c0 164.2 120.6 300.8 282.2 321.6 4.8 37.4 36 65.4 73.4 65.4 38 0 69.2-28.6 73.8-65.4 161.4-21 282-157.4 282-321.6v-363.4h62.6v-86h-251.4c0.8-6.6 1.2-13 1.2-19.6-0.2-92.6-75.6-168-168.2-168zM432.6 123.6c-1.8-6.8-2.6-13.2-2.6-19.6 0-45.2 36.8-82 82-82s82 36.8 82 82c0 6.4-0.8 12.8-2.6 19.6h-158.8zM242.4 209.6h539.4v363.4c0 131.4-107 238.4-238.4 238.4h-62.6c-131.4 0-238.4-107-238.4-238.4v-363.4z" />
<glyph unicode="&#xe90a;" glyph-name="reply" d="M765.6 391.4l-68-65.2 110.2-107.8h-437c-132.6 0-242.6 101.8-242.6 235.6v250h-96.2v-250c0-187.4 153.2-332.8 338.8-332.8h437l-110.2-115 68-70.4 226.4 227.8-226.4 227.8z" />
<glyph unicode="&#xe90b;" glyph-name="comment-full" d="M755.6-64l-197 196.8h-268.4c-134.4 0-243.6 109.2-243.6 243.2v277c0 134 109.2 243 243.6 243h443.8c134.2 0 243.6-109 243.6-243v-277c0-126.8-97.8-231.2-221.8-242.2v-197.8z" />
<glyph unicode="&#xe90c;" glyph-name="comment" d="M755.6-64l-197 196.8h-268.4c-134.4 0-243.6 109.2-243.6 243.2v277c0 134 109.2 243 243.6 243h443.8c134.2 0 243.6-109 243.6-243v-277c0-126.8-97.8-231.2-221.8-242.2v-197.8zM290.2 852.6c-110.4 0-200.2-89.6-200.2-199.6v-277c0-110.2 89.8-199.8 200.2-199.8h286.4l135.8-135.6v135.6h21.6c110.4 0 200.2 89.6 200.2 199.8v277c0 110.2-89.8 199.8-200.2 199.8h-443.8z" />
<glyph unicode="&#xe90d;" glyph-name="like-full" d="M512 16l-401.8 404.4c-104.2 105-104.2 275.8 0 380.6 50.6 51 117.8 79 189.4 79 71.4 0 138.8-28 189.4-79l23-23.2 23 23.2c50.6 51 117.8 79 189.4 79 71.4 0 138.8-28 189.4-79 104.2-105 104.2-275.8 0-380.6l-401.8-404.4z" />
<glyph unicode="&#xe90e;" glyph-name="like" d="M512 16l-401.8 404.4c-104.2 105-104.2 275.8 0 380.6 50.6 51 117.8 79 189.4 79 71.4 0 138.8-28 189.4-79l23-23.2 23 23.2c50.6 51 117.8 79 189.4 79 71.4 0 138.8-28 189.4-79 104.2-105 104.2-275.8 0-380.6l-401.8-404.4zM299.6 825.2c-56.8 0-110.4-22.2-150.6-62.8-83.2-83.6-83.2-219.8 0-303.4l363-365.4 363 365.2c83.2 83.6 83.2 219.8 0 303.4-80.6 81-220.6 81-301.2 0l-61.8-62-62 62.2c-40.2 40.6-93.6 62.8-150.4 62.8z" />
<glyph unicode="&#xe90f;" glyph-name="join" d="M944 579l-489-483.2c-81-80-212.4-80-293.6 0-81 80-81 209.8 0 290l440.8 434.8c0.6 0.4 0.8 1 1.4 1.6 54 53.4 141.6 53.4 195.6 0s54-140 0-193.2c-0.6-0.4-1.2-1-1.6-1.4v-0.2l-49-48.2-49-48.4-11.4-11.2-331.2-327.4c-27-26.6-70.8-26.6-97.8 0s-27 70 0 96.6l49 48.2 342.4 338.2-49 48.8-391.2-386.8 0.2-0.2c-52.4-53.4-52.2-138.8 1.4-191.6s139.8-53.2 194-1.4l0.2-0.2 109.2 107.8 61.6 61 269.6 266.2c81 80 81 209.8 0 289.8s-212.4 80-293.6 0l-49-48.2-49-48.4-342.6-338c-106.4-107-106-278.8 1.6-385s281.6-106.6 389.8-1.4v0l489.2 483-49 48.4z" />
<glyph unicode="&#xe910;" glyph-name="send" d="M985.8 915c-1 1.4-2 2.4-3 3.4-1.2 1-2.2 2.2-3.4 3-7.2 5.6-16.6 8.2-26 5.8l-898-445.6c-0.6-0.2-1-0.6-1.6-0.8-9.8-2.8-17.8-10-20.6-20.6-1.4-5.4-0.8-10.6 0.8-15.8 0-0.2 0-0.2 0-0.4 0-0.4 0.4-0.6 0.4-1 1-3 2.4-6 4.2-8.6 1-1.2 2-2.4 3-3.4 1.6-1.6 3-3 5-4.4 1.6-1 3.2-1.8 5-2.6 1.4-0.6 2.6-1.6 4-2l272.4-129.8 158.4-301c0.4-1.6 1.4-2.6 2.2-4.2s1.4-3.2 2.4-4.8c1.2-1.8 2.8-3.4 4.4-5 1.2-1 2.2-2.2 3.6-3 2.6-1.8 5.4-3.2 8.6-4.2 0.4 0 0.6-0.4 1-0.4 0.2 0 0.2 0 0.4 0 5-1.4 10.4-2 15.8-0.8 10.6 2.6 17.8 10.8 20.6 20.6 0.2 0.6 0.6 1 0.8 1.6l445.4 898.2c2.6 9.4-0.2 18.6-5.8 25.8zM515.2 64.2l-128.6 244.6 471.8 447-343.2-691.6zM343.8 351.2l-212.2 101.2 669.8 332.2-457.6-433.4z" />
<glyph unicode="&#xe911;" glyph-name="share" d="M833 352c-56.4 0-105.6-29.2-134-73.2l-348.4 144.2c1.2 8.2 2.4 16.4 2.4 25 0 4.8-1 9.2-1.4 13.8l347.8 154.4c28.6-43.4 77.6-72.2 133.6-72.2 88.4 0 160 71.6 160 160s-71.6 160-160 160c-88.4 0-160-71.6-160-160 0-9.4 1.2-18.4 2.8-27.4l-343-152.4c-27.2 49.8-79.2 83.8-139.8 83.8-88.4 0-160-71.6-160-160s71.6-160 160-160c56.2 0 105.6 29.2 134 73.2l348.4-144.2c-1.2-8.2-2.4-16.4-2.4-25 0-88.4 71.6-160 160-160s160 71.6 160 160c0 88.4-71.6 160-160 160zM833 800c53 0 96-43 96-96s-43-96-96-96c-53 0-96 43-96 96s43 96 96 96zM193 352c-53 0-96 43-96 96s43 96 96 96c53 0 96-43 96-96s-43-96-96-96zM833 96c-53 0-96 43-96 96s43 96 96 96c53 0 96-43 96-96s-43-96-96-96z" />
<glyph unicode="&#xe912;" glyph-name="trash" d="M842 776h-180v90c0 16.6-13.4 30-30 30h-240c-16.6 0-30-13.4-30-30v-90h-180c-33.2 0-60-26.8-60-60v-60c0-33.2 26.8-60 60-60v-600c0-33.2 26.8-60 60-60h540c33.2 0 60 26.8 60 60v600c33.2 0 60 26.8 60 60v60c0 33.2-26.8 60-60 60zM422 836h180v-60h-180v60zM782 566v-540c0-16.6-13.4-30-30-30h-480c-16.6 0-30 13.4-30 30v570h540v-30zM812 656h-600c-16.6 0-30 13.4-30 30s13.4 30 30 30h600c16.6 0 30-13.4 30-30s-13.4-30-30-30z" />
<glyph unicode="&#xe913;" glyph-name="settings" d="M932 538l-75 12.6c-7.2 24.2-16.6 47.4-28.4 69l44.2 61.8c23.4 23.4 23.4 61.4 0 84.8l-42.4 42.4c-23.4 23.4-61.4 23.4-84.8 0l-61.8-44c-21.8 11.8-45 21.2-69 28.4l-12.8 75c0 33.2-26.8 60-60 60h-60c-33.2 0-60-26.8-60-60l-12.6-75c-24.2-7.2-47.4-16.6-69.2-28.4l-61.6 44c-23.4 23.4-61.4 23.4-84.8 0l-42.4-42.4c-23.4-23.4-23.4-61.4 0-84.8l44.2-61.8c-11.8-21.8-21.4-45-28.4-69l-75.2-12.6c-33.2 0-60-27-60-60v-60c0-33.2 26.8-60 60-60l75-12.6c7.2-24.2 16.6-47.4 28.4-69.2l-44-61.6c-23.4-23.4-23.4-61.4 0-84.8l42.4-42.4c23.4-23.4 61.4-23.4 85 0l61.6 44c21.8-11.8 45-21.2 69.2-28.4l12.4-75c0-33.2 26.8-60 60-60h60c33.2 0 60 26.8 60 60l12.6 75c24.2 7.2 47.4 16.6 69 28.4l61.8-44.2c23.4-23.4 61.4-23.4 84.8 0l42.4 42.4c23.4 23.4 23.4 61.4 0 84.8l-44.2 61.6c11.8 21.8 21.2 45 28.4 69.2l75.2 12.8c33.2 0 60 26.8 60 60v60c0 33.2-26.8 60-60 60zM902 418l-93.8-15.6c-7.4-48.8-26.6-93.6-54.6-131.6l55.2-77.4c11.8-11.8 11.8-30.8 0-42.4-11.6-11.8-30.8-11.8-42.4 0l-77.4 55.2c-38-27.8-82.8-47-131.4-54.4l-15.6-93.8c0-16.6-13.4-30-30-30s-30 13.4-30 30l-15.6 93.8c-48.6 7.4-93.6 26.6-131.6 54.4l-77.4-55.2c-11.8-11.8-30.8-11.8-42.4 0s-11.6 30.8 0 42.4l55.4 77.4c-27.8 38-47.2 82.8-54.6 131.6l-93.8 15.6c-16.6 0-30 13.4-30 30s13.4 30 30 30l93.8 15.6c7.4 48.8 26.6 93.6 54.6 131.6l-55.4 77.4c-11.6 11.8-11.6 30.8 0 42.4 11.8 11.8 30.8 11.8 42.4 0l77.4-55.2c38 27.8 82.8 47 131.6 54.4l15.6 93.8c0 16.6 13.4 30 30 30s30-13.4 30-30l15.6-93.8c48.6-7.4 93.6-26.6 131.4-54.4l77.4 55.2c11.8 11.8 30.8 11.8 42.4 0 11.8-11.8 11.8-30.8 0-42.4l-55.2-77.4c27.8-38 47.2-82.8 54.6-131.6l93.8-15.6c16.6 0 30-13.4 30-30s-13.4-30-30-30zM512 598c-82.8 0-150-67.2-150-150s67.2-150 150-150 150 67.2 150 150-67.2 150-150 150zM512 358c-49.8 0-90 40.2-90 90s40.2 90 90 90 90-40.4 90-90c0-49.8-40.2-90-90-90z" />
<glyph unicode="&#xe914;" glyph-name="logout" d="M512 88c0-16.6-13.4-30-30-30h-360c-16.6 0-30 13.4-30 30v720c0 16.6 13.4 30 30 30h390c16.6 0 0-13.4 0-30v-90h60v120c0 33.2-26.8 60-60 60h-420c-33.2 0-60-26.8-60-60v-780c0-33.2 26.8-60 60-60h420c33.2 0 60 26.8 60 60v120h-60v-90zM991.8 448.4c0 0.6-0.2 1.2-0.2 1.8-0.2 2.2-0.6 4.4-1.2 6.4-1.4 4.6-3.4 9.2-7 12.8-1.2 1.2-3 1.8-4.4 2.8l-237 237.2c-11.4 11.4-30 11.4-41.4 0s-11.4-30 0-41.4l190-190h-708.6c-16.6 0-30-13.4-30-30s13.4-30 30-30h708.6l-190-190c-11.4-11.4-11.4-30 0-41.4s30-11.4 41.4 0l237.2 237.2c1.4 1 3 1.4 4.2 2.8 5.8 5.8 8.6 13.6 8.6 21.2v0.4c0 0-0.2 0-0.2 0.2z" />
<glyph unicode="&#xe915;" glyph-name="options" d="M1024 64c0-53-43-96-96-96s-96 43-96 96c0 53 43 96 96 96s96-43 96-96v384c0 53-43 96-96 96s-96-43-96-96c0-53 43-96 96-96s96 43 96 96v384c0 53-43 96-96 96s-96-43-96-96c0-53 43-96 96-96s96 43 96 96z" />
<glyph unicode="&#xe916;" glyph-name="question" d="M512-32c-264.6 0-480 215.4-480 480s215.4 480 480 480 480-215.4 480-480-215.2-480-480-480zM512 868c-231.6 0-420-188.4-420-420s188.4-420 420-420 420 188.4 420 420-188.4 420-420 420zM395 636.2c6.8 6 14.4 11.8 22.6 17.4s17 10.2 26.6 14.2 19.8 7.2 31 9.6 23.2 3.4 36.2 3.4c17.6 0 33.6-2.4 48.2-7.2 14.4-4.8 26.8-11.8 37.2-20.8s18.4-19.8 24-32.6c5.6-12.8 8.6-27 8.6-42.8 0-15.4-2.2-28.6-6.6-40-4.4-11.2-10-21-16.8-29.4s-14-15.4-22-21.6c-8-6-15.6-11.8-22.6-17.2s-13.2-10.6-18.4-15.8-8.2-11-9.2-17.4l-7-44.4h-51.4l-5.2 49.4c-1.2 9.6 0.2 17.8 4.2 25s9.2 13.8 15.8 19.8c6.6 6 14 11.8 22 17.4s15.6 11.6 22.8 18.2c7 6.6 13 14 17.8 22.2s7.2 18 7.2 29.4c0 7.2-1.4 13.8-4.2 19.6s-6.6 10.8-11.4 14.8c-4.8 4.2-10.6 7.4-17.4 9.6s-14.2 3.4-22 3.4c-11.6 0-21.4-1.2-29.4-3.8s-14.8-5.4-20.4-8.4c-5.6-3.2-10.2-6-14.2-8.6-3.8-2.6-7.2-3.8-10.4-3.8-7.2 0-12.6 3-15.8 9.2l-19.8 31.2zM452.4 278.2c0 6.2 1.2 12.2 3.6 18 2.4 5.6 5.6 10.6 9.6 14.6s9 7.2 14.6 9.8c5.6 2.4 11.8 3.6 18.2 3.6s12.6-1.2 18-3.6c5.6-2.4 10.4-5.6 14.6-9.8 4.2-4 7.4-9 9.8-14.6s3.6-11.6 3.6-18-1.2-12.6-3.6-18c-2.4-5.6-5.8-10.4-9.8-14.4-4.2-4-9-7.2-14.6-9.6s-11.6-3.4-18-3.4-12.6 1.2-18.2 3.4c-5.6 2.4-10.6 5.6-14.6 9.6s-7.2 8.8-9.6 14.4-3.6 11.6-3.6 18z" />
<glyph unicode="&#xe917;" glyph-name="rendezmood" d="M514 268l-346 180h-134l480-240 480 240h-134l-346-180zM994 628l-480 240-480-240 480-240 480 240zM514 808l360-173.4-360-186.6-360 186.6 360 173.4zM514 88l-346 180h-134l480-240 480 240h-134l-346-180z" />
<glyph unicode="&#xe918;" glyph-name="mood-excited" d="M297.8 498.6c12.2-11 31-11 42.2 0l16.8 16.8 16.8-17.8c12.2-11 31-11 42.2 0 11 12.2 11 31 0 42.2l-16.8 17.8 16.8 16.8c11 12.2 11 31 0 42.2-12.2 11-31 11-42.2 0l-16.8-16.8-16.8 16.8c-12.2 11-31 11-42.2 0-11-12.2-11-31 0-42.2l16.8-16.8-16.8-16.8c-11.6-12.2-11.6-31.2 0-42.2zM692.2 327h-359.8c-11 0-22-4.6-30.6-13.2-17.4-17.4-16.6-44.6 1.6-61.2 56.8-53.2 130.4-83.2 209-83.2s152.4 29.8 209.8 82.4c16.6 16.6 18.2 43 1.6 61.2-9 10.4-20.6 14-31.6 14zM608.8 497.6c11-11 30-11 42.2 0l16.8 16.8 16.8-16.8c11-11 30-11 42.2 0 11 11 11 30 0 42.2l-17.8 16.8 16.8 16.8c11 11 11 30 0 42.2-11 11-30 11-42.2 0l-15.8-16.8-16.8 16.8c-11 11-30 11-42.2 0-11-11-11-30 0-42.2l16.8-16.8-16.8-16.8c-11-11.2-11-30.2 0-42.2zM512 948c-276.8 0-500-223.2-500-500s223.2-500 500-500c275.8 0 500 223.2 500 500s-224.2 500-500 500zM512 34.8c-227.8 0-413.2 185.8-413.2 413.2s185.4 413.2 413.2 413.2 413.2-185.6 413.2-413.2-185.4-413.2-413.2-413.2z" />
<glyph unicode="&#xe919;" glyph-name="mood-nervous" d="M512 948c-276.8 0-500-224.2-500-500s223.2-500 500-500 500 224.2 500 500-223.2 500-500 500zM512 34.8c-227.8 0-413.2 185.8-413.2 413.2s185.4 413.2 413.2 413.2 413.2-185.6 413.2-413.2-185.4-413.2-413.2-413.2zM512 323.8c-78 0-152.2-30-209-83.2-17.8-16.8-18.8-43.2-1.8-61 16.8-18 43.2-19 61-2.2 41 39 94.2 60 150 60s109-21 150-60c17.8-15.6 44.2-15.6 61 2.2 15.6 17.8 15.6 44.2-2.2 61-56.8 53.2-131 83.2-209 83.2zM313 495.8c32.2-18.8 73.2-7.8 91.2 24.2l-115.6 66.8c-17.8-32-7.8-72 24.4-91zM619.8 519c18-32 59.2-43 91.2-24.2s43.2 58.8 24.2 91l-115.4-66.8z" />
<glyph unicode="&#xe91a;" glyph-name="mood-laugh" d="M512 948c-276.8 0-500.8-223.8-500-500 0-276.8 223.8-500.8 500-500 276.8 0 500.8 223.8 500 500 0 276.8-223.2 500-500 500zM512 34.6c-228 0-413.4 185.8-413.4 413.4s185.4 413.4 413.4 413.4 413.4-185.6 413.4-413.4-185.4-413.4-413.4-413.4zM716.2 646.2c-0.8-3.8-2.2-7.2-5.6-10.2-3.8-3.8-8.8-5.6-14.8-5.6-16.6 2.2-32.2-5.6-42.4-17.4 31.4 8 68.4-0.8 88.8-27.6 6.4-8 4.6-19-3-25.4-3-3-7.2-3.8-11-3-4.6 0-10.2 2.2-14 6.4-19 23.4-57.4 24.2-77.2 0-2.2-3.8-6.4-6.4-11.8-7.2-7.2-0.8-14 3-17.4 9.4v0c-0.8 0.8-0.8 2.2-1.6 3 0 0-0.8 0.8 0 1.6-0.8 0.8 0 1.6-0.8 2.2-6.4 51.8 41.6 99.8 93.4 93.4 12.2 0 18.6-9.4 17.4-19.6zM416.6 572.8c-0.8-7.2-5.6-11.8-11-14 0 0 0 0-0.8-0.8-1.6 0-3.8-0.8-5.6-0.8v0c0 0 0 0-1.6 0 0 0-0.8-0.8-1.6 0 0 0 0 0-0.8 0.8h-1.6c-0.8 0.8-1.6 0-2.2 0.8 0 0-0.8 0.8-1.6 0-0.8 0.8-0.8 0.8-1.6 1.6s-0.8 0.8-1.6 1.6-0.8 0.8-1.6 1.6l-0.8 0.8c-19 23.4-57.4 24.2-77.2 0-6.4-8-17.4-9.4-25.4-3s-9.4 17.4-3 25.4c21.2 27.6 57.4 37 88.8 27.6-10.2 11.8-26.2 19.6-42.4 17.4-5.6-0.8-11 1.6-14.8 5.6-2.2 2.2-4.6 6.4-5.6 10.2-1.6 9.4 5.6 18.2 14.8 19.6 55.6 5.4 103.8-42.2 97.2-94.4zM723.4 308.8c16.6-18.2 14.8-44.6-1.6-61.2-57.4-52.6-131.2-82.4-210-82.4s-152.4 29.8-209.2 83.2c-18.2 16.6-19 43.8-1.6 61.2 8.8 8.8 19.6 13.2 30.6 13.2v0h360c11.4 0.4 23.2-3.8 31.8-14z" />
<glyph unicode="&#xe91b;" glyph-name="mood-happy" d="M512 861.2c227.8 0 413.2-185.8 413.2-413.2s-185.6-413.2-413.2-413.2-413.2 185.4-413.2 413.2 185.4 413.2 413.2 413.2zM512 948c-276.8 0-500-224.2-500-500s223.2-500 500-500 500 224.2 500 500-223.2 500-500 500zM721 248c17.8 16.8 17.8 43.2 2.2 61-16.8 17.8-43.2 17.8-61 2.2-41-39-94.2-60-150-60s-109 21-150 60c-17.8 16.8-44.2 15.8-61-2.2-16.8-17.8-15.8-44.2 2.2-61 56.8-53.2 131-83.2 209-83.2 77.4 1 151.8 30 208.6 83.2zM409.8 561.2c7.8 5.8 9 16.8 3.2 24.2-32.2 41-100 41-132.2 0-5.8-7.8-4.2-19 3.2-24.2 7.8-5.8 19-4.2 24.2 3.2 19 24.2 57.8 24.2 76.8 0 3.2-4.2 9-6.8 14.2-6.8 3.8 0.4 7 1.4 10.6 3.6zM739.8 561.2c7.8 5.8 9 16.8 3.2 24.2-32.2 41-100 41-132.2 0-5.8-7.8-4.2-19 3.2-24.2 7.8-5.8 19-4.2 24.2 3.2 19 24.2 57.8 24.2 76.8 0 3.2-4.2 9-6.8 14.2-6.8 3.8 0.4 7 1.4 10.6 3.6z" />
<glyph unicode="&#xe91c;" glyph-name="mood-cool" d="M512 948c-276.8 0-500-224.2-500-500s223.2-500 500-500 500 224.2 500 500-223.2 500-500 500zM512 34.8c-227.8 0-413.2 185.8-413.2 413.2s185.4 413.2 413.2 413.2 413.2-185.6 413.2-413.2-185.4-413.2-413.2-413.2zM722 248c17.8 16.8 17.8 43.2 2.2 61-16.8 17.8-43.2 17.8-61 2.2-41-39-94.2-60-150-60s-109 21-150 60c-17.8 16.8-44.2 15.8-61-2.2s-15.8-44.2 2.2-61c56.8-53.2 131-83.2 209-83.2 77.6 0 151.8 30 208.6 83.2zM783 652.2h-543.2c-19 0-35.8-15.8-35.8-35.8v-135.6c0-19 15.8-35.8 35.8-35.8h212.2c19 0 35.8 15.8 35.8 35.8v80h47.8v-80c0-19 15.8-35.8 35.8-35.8h212.2c19 0 35.8 15.8 35.8 35.8v135.8c-0.6 20.4-16.4 35.6-36.4 35.6z" />
<glyph unicode="&#xe91d;" glyph-name="mood-inlove" d="M512 861.2c227.8 0 413.2-185.8 413.2-413.2s-185.6-413.2-413.2-413.2-413.2 185.4-413.2 413.2 185.4 413.2 413.2 413.2zM512 948c-276.8 0-500-224.2-500-500s223.2-500 500-500 500 224.2 500 500-223.2 500-500 500zM721 248c17.8 16.8 17.8 43.2 2.2 61-16.8 17.8-43.2 17.8-61 2.2-41-39-94.2-60-150-60s-109 21-150 60c-17.8 16.8-44.2 15.8-61-2.2-16.8-17.8-15.8-44.2 2.2-61 56.8-53.2 131-83.2 209-83.2 77.4 1 151.8 30 208.6 83.2zM321.4 640.524c-13.8 0-28.2-5.6-38.8-16.6-21-21.8-21-57.2 0-79l76-79c3.8-4 11.4-4 15.6 0 25.6 26.4 50.6 52.4 76.2 78.8 21 21.8 21 57.4 0 79.2s-56.4 21.8-77.4 0l-6.4-6.6-6.4 6.6c-10.6 11.2-25 16.6-38.8 16.6v0zM612.2 640.524c-13.8 0-28.2-5.6-38.8-16.6-21-21.8-21-57.2 0-79l76-79c3.8-4 11.4-4 15.6 0 25.6 26.4 50.6 52.4 76.2 78.8 21 21.8 21 57.4 0 79.2s-56.4 21.8-77.4 0l-6.4-6.6-6.4 6.6c-10.6 11.2-25 16.6-38.8 16.6v0z" />
<glyph unicode="&#xe91e;" glyph-name="mood-sad" d="M736.2 534.8c11-11 11-30 0-42.2-11-11-30-11-42.2 0l-75.8 75.8c-11 11-11 30 0 42.2 11 11 30 11 42.2 0l75.8-75.8zM329.8 493.8c-11-11-30-11-42.2 0-11 11-11 30 0 42.2l75.8 75.8c11 11 30 11 42.2 0 11-11 11-30 0-42.2l-75.8-75.8zM512 948c-276.8 0-500-223.2-500-500s223.2-500 500-500c275.8 0 500 223.2 500 500s-224.2 500-500 500zM512 34.8c-227.8 0-413.2 185.8-413.2 413.2s185.4 413.2 413.2 413.2 413.2-185.6 413.2-413.2-185.4-413.2-413.2-413.2zM309.4 239.8c-17.8-16.8-17.8-43.2-2.2-61 16.8-17.8 43.2-17.8 61-2.2 41 39 94.2 60 150 60s109-21 150-60c17.8-16.8 44.2-15.8 61 2.2 16.8 17.8 15.8 44.2-2.2 61-56.8 53.2-131 83.2-209 83.2s-152.2-29.6-208.6-83.2z" />
<glyph unicode="&#xe91f;" glyph-name="mood-determined" d="M512 948c-276.8 0-500-224.2-500-500s223.2-500 500-500 500 224.2 500 500-223.2 500-500 500zM512 34.8c-227.8 0-413.2 185.8-413.2 413.2s185.4 413.2 413.2 413.2 413.2-185.6 413.2-413.2-185.4-413.2-413.2-413.2zM721 248c-56.8-53.2-131-82.2-209-82.2s-152.2 30-209 83.2c-17.8 16.8-17.8 43.2-2.2 61 16.8 17.8 43.2 17.8 61 2.2 41-39 94.2-60 150-60s109 21 150 60c17.8 16.8 44.2 15.8 61-2.2 17-17.8 16-45.2-1.8-62zM619.8 519l115.8 66.8c19-32.2 7.8-72.2-24.2-91-32.6-17.8-73.6-7.8-91.6 24.2zM313 495.8c-32.2 19-42.2 59-24.2 91l115.8-66.8c-18.4-32-59.4-43-91.6-24.2z" />
<glyph unicode="&#xe920;" glyph-name="arrow-right" d="M276.2 41.2c-15.8-16.8-15.8-44 0-60.8 8-8.4 18.4-12.4 28.8-12.4s20.8 4.2 28.8 12.4l414 437.2c15.8 16.8 15.8 44 0 60.8l-414 437c-15.8 16.8-41.6 16.8-57.6 0-15.8-16.8-15.8-44 0-60.8l385.2-406.6-385.2-406.8z" />
<glyph unicode="&#xe921;" glyph-name="arrow-left" d="M362.6 448l385.2 406.6c15.8 16.8 15.8 44 0 60.8s-41.6 16.8-57.6 0l-414-437c-15.8-16.8-15.8-44 0-60.8l414-437.2c8-8.4 18.4-12.4 28.8-12.4s20.8 4.2 28.8 12.4c15.8 16.8 15.8 44 0 60.8l-385.2 406.8z" />
<glyph unicode="&#xe922;" glyph-name="mooddy" d="M467.6 929.4c0 0.2 0 0.4 0 0.6 9.8 0 19.6 0 29.4 0 0-0.2 0-0.6 0-0.8-9.8 0-19.6 0.2-29.4 0.2zM514.2 235.6c-130.8 0.4-236.4 105.2-236.6 236.2-0.2 133.8 109 237.6 238 236.8 129.2-0.8 235.2-106.2 235-237.4-0.4-127.2-103-235-236.4-235.6zM504.6 457.2c-0.6 1-1 1.4-1.4 2-12.8 20.4-25.8 41-38.6 61.4-1.4 2.2-1 3.6 0.6 5.6 6.4 8 9 17.2 7.8 27.4-2.8 21.6-22.4 34.4-41.4 31.2-28.6-4.8-40.2-37.2-21.8-59.4 1.6-1.8 2-3.2 0.8-5.6-11.4-21.4-22.6-42.8-34-64.2-1-2-2.2-2.6-4.6-2.6-4.4 0.2-9 0.4-13.4-0.4-17.4-3.4-30.6-20-28.6-39.2 1.8-18.8 19.4-34.6 40-32.2 14.8 1.8 25.4 10.2 30.2 24.4s1.4 26.8-9 37.4c-1 1-2 2.2-3.2 3.4 12.2 22.8 24 45.4 35.8 67.8 0.8 0.2 1 0.2 1.4 0.2 0.8-0.2 1.6-0.4 2.4-0.6 6.4-1.6 12.8-1.6 19 0 4.4 1.2 4.4 1.2 6.6-2.6 12.6-19.8 25-39.8 37.4-59.6 0.6-0.8 0.8-1.6 1.4-2.6-6.8-7.4-11.2-15.8-11-26s3.6-19.2 11-26.4c14.2-13.6 35.4-12.2 47.8-2.6 7.4 5.6 11.4 13.4 13.4 22.2 2.8 12.4-1.8 22.8-9.8 32.4 14.4 21.6 28.8 43 43.2 64.6 9-3.6 17.8-3.8 26.8-1.2 11.6-23.4 22.8-46.4 34.2-69.4-1-1-1.8-1.6-2.4-2.2-0.8-0.8-1.6-1.6-2.4-2.4-8.8-9.2-11.8-20.2-9.4-32.4 4-20.4 24.8-33 45-27.6 21.4 5.8 31.2 28.4 24.6 47-4.6 13-18.2 25.6-37.8 23.8-3.2-0.2-4.8 0.4-6.2 3.4-10.4 21.2-20.8 42.4-31.4 63.6-1.2 2.6-1.4 4.4 0.8 6.6 6.4 6.8 9.2 15 9.2 24.4 0.2 22.2-22 41.4-46.6 34.2-24-7-33.4-35.6-18.6-56 2.6-3.4 2.6-3.6 0.2-6.8-13-19.6-26-39-39.2-58.6-0.6-1-1.4-2-2.4-3-8.8 3.6-17.6 3.2-26.4 0.6zM467.6 929.4c9.8 0 19.6 0 29.4 0 13.4-1.4 26.8-2.4 40-4.2 24.8-3.4 49-10.2 72.4-19 39.6-15 75.4-36.6 107.6-64 43.8-37.2 77.8-82.4 104.6-133 8.8-16.6 16.6-33.8 23.6-51.4 1.2-3.4 3.2-4.8 6.6-5.4 19.2-3 34.2-12.8 45.4-28.8 8.6-12.2 14-25.6 18.4-39.8 5.4-17.8 8.6-36.2 11.2-54.6 2-15.2 3-30.4 2.4-45.6-0.4-14.4-2.6-28.6-8-42.2-6.6-16.2-17.4-28.4-32.6-37-11.2-6.2-23.2-10-35.6-13.2-1-0.2-2.2-0.6-3.2-0.8-4.8-0.6-4.2-2-4-5.6 0.4-8.6 1-17-1.2-25.4-5-18.8-20.8-31.2-39.8-31.2-19.2 0-37.4 15-40.6 34.2-1.2 7.2-1.2 14.4-1.6 21.8-1 18-1.6 36-3 54-2.2 27.4-5.4 54.8-9.6 82-6.4 42-15.2 83.6-26.2 124.6-2.8 10.4-3 20.8 1.6 30.8 8 17.2 23.4 26.4 40 25 17.6-1.4 29.6-11 36.2-27.2 2.2-5.4 3.4-11.2 5-16.8 0.4-1.2 0.6-2.4 1.2-4 3 0.2 5.8 0.4 9.2 0.6-0.4 1.4-0.6 2.4-1 3.4-21.6 50.8-50.2 97-88.8 136.6-47.6 48.8-104.4 81.8-171.2 97-16.8 3.8-33.8 6.2-51 7.2-90.4 4.8-170.8-21.4-240.4-79.4-54.2-45.2-89.6-102.8-107.8-171-5-18.8-8.6-37.8-10.2-57.2-1-13.4-2-26.8-2.2-40.2-0.2-20.8 1.6-41.6 4.4-62.2 2.6-17.6 6-35 10.2-52.2 0.2-0.8 0.6-1.6 0.8-2.6 1.4 1 2.8 1.8 4 2.6s2.4 1.8 4 2.8c-1.6 3.6-3 6.8-4.4 10.2-2.6 5.6-4.8 11.2-5.6 17.4-2.6 20 8.6 41.6 32 46.2 19.6 4 39.4-6.6 47.6-25.2 10-22.8 20.2-45.4 31.4-67.6 30.4-60.4 66-117.8 106.4-172 6.2-8.4 10.4-17.6 10.2-28.2 0-21.2-14.4-37.2-32-41-14.6-3.2-26.8 1.4-37.4 10.8-4.8 4.4-8.4 10-12.6 15.2-1 1.2-2 2.6-3.2 4-3-1.6-5.8-2.8-8.6-4.2-10.8-5.2-22-9.8-33.8-12.2-18.6-3.8-35.8-0.2-51.6 10.2-12.2 8-22.4 18.2-31.2 29.6-20.4 25.8-36.6 53.8-48.8 84.2-6 15-9.8 30.6-9.6 47 0.2 17 5.6 32 16 45.4 0.4 0.6 0.8 1.2 1.4 1.6 2 1.8 2.2 3.8 1.4 6.4-6 21.6-11 43.4-14.2 65.4-2 14.4-3.2 28.8-4.6 43.4-1.2 11.2-2 22.4-1.6 33.6 0.4 10 1 20 1.8 30 1.2 15.8 3.4 31.4 6.6 46.8 13.4 65.6 41 124.2 86.4 173.8 42.4 46.4 93.2 80.2 152.8 100.6 22.8 7.8 46.2 13.2 70 16.2 11.8 1.6 23.4 2.6 35 3.8zM80.6 68.2c1.4 1.8 2.8 3.2 4 4.6 14 16.8 28 33.8 42 50.8 2.2 2.6 4.4 3.8 7.8 3.8 7.6-0.2 15 0 22.6 0 1.4 0 2.8 0 4.4 0 0-37.4 0-74.2 0-111.2-2.8-0.8-21.4-1-26.8-0.2 0 26 0 52 0 78-0.2 0.2-0.6 0.2-0.8 0.4-17.8-21.4-35.4-42.4-53.2-63.8-17.8 21.4-35.2 42.4-52.8 63.4-0.2 0-0.6-0.2-0.8-0.2 0-26 0-52 0-78.2-9.2 0-18 0-26.8 0-0.8 3-1 106.8-0.2 111.6 1.2 0 2.4 0.2 3.6 0.2 8.2 0 16.2 0 24.4 0 2.6 0 4.4-0.8 6-2.8 14.8-18.2 29.8-36.2 44.8-54.2 0.4-0.8 1-1.2 1.8-2.2zM724.6 15.6c0 37.2 0 74.2 0 111.4 1.2 0.2 2.2 0.2 3.4 0.2 24.6 0 49.2 0 73.8 0 14.4 0 28-2.8 40.4-10.6 14.8-9.2 23.2-22.6 25-40 1.2-11.8-0.4-23-6.8-33-7.8-12.4-19-20.2-32.8-24.8-8.2-2.8-16.6-3.6-25.2-3.6-24.8 0-49.4 0-74.2 0-1.2 0.2-2.2 0.2-3.6 0.4zM752.2 105.8c0-23 0-45.8 0-69 1 0 1.6-0.2 2.2-0.2 16 0 31.8-0.2 47.8 0 7.8 0 15.2 2.4 21.6 7 11.2 8 16.8 18.8 14.4 32.6-2.2 13.6-10 23.2-23.4 27.4-4.6 1.4-9.6 2.2-14.4 2.2-15 0.2-30 0.2-44.8 0-1 0.2-2.2 0-3.4 0zM551.6 15.6c0 37.2 0 74.2 0 111.4 1.2 0 2.2 0.2 3.4 0.2 24.6 0 49.2 0 73.8 0 14.6 0 28.6-3 41.2-11 15.2-9.8 23-23.8 24.2-41.8 1-14-2.4-26.6-11.8-37.4-10.4-11.6-23.4-18.2-38.8-20.6-5-0.8-10-1-15-1-24.4-0.2-48.6 0-73 0-1.2 0-2.6 0-4 0.2zM578.8 37c0.8-0.2 1.4-0.2 2-0.2 16.2 0 32.4-0.2 48.6 0 8.2 0.2 15.6 2.8 22.2 7.6 23.2 17.2 15 48.4-5.4 57.8-6 2.8-12.4 4-19.2 4-15 0-30 0-44.8 0-1 0-2.2-0.2-3.4-0.2 0-23.2 0-46 0-69zM268.2 130.6c16.6 0.2 32.4-3.2 47-11.6 9.6-5.6 17.6-12.8 23-22.6 10.4-19.2 8.8-48.4-13.8-66.2-11.6-9.2-25-14.6-39.6-16.8-15-2.2-29.8-1.8-44.4 2.4-13 3.6-24.8 9.6-34.2 19.6-11 11.6-15.2 25.4-14 41.2 1.4 17 10 30 23.8 39.6 14.4 10 30.6 14.6 48.2 14.8 1.2-0.4 2.6-0.4 4-0.4zM269.4 109c-11.8 0-20.2-1.6-28-5.4-19-9-24.8-26.6-19.4-43.4 3.8-11.8 12.4-18.8 23.6-22.6 14.8-5.2 30-5 44.8 0 6.6 2.2 12.4 5.6 17.2 11 13.4 14.8 12 41.8-9.4 53.6-9.4 4.8-19.4 6.8-28.8 6.8zM445.2 131c16.6 0 32.2-3.6 46.6-11.8 7.4-4.2 13.8-9.4 19-16.2 8.4-11 11.2-23.4 10-37.2-1.6-17-10.2-29.6-24-39-11.8-8.2-25.2-12.6-39.4-14-16.2-1.6-32-0.6-47.4 5.2-11.4 4.2-21.6 10.6-29.4 20-16.6 19.6-16.8 54.4 7.8 74.4 12 9.6 25.6 15.2 40.8 17.2 5.2 0.8 10.6 1 16 1.4zM444.2 109c-8.4 0.2-17.4-1.4-26-5.4-15-7-23-20.6-21-37 1.6-13.2 9.4-22.2 21.2-27.6 11.4-5.2 23.4-6 35.8-4.6 7.2 0.8 14.2 2.8 20.6 6.4 23.6 13 24.2 46.8 1 60.4-9.4 5.6-19.8 7.8-31.6 7.8zM957.6 15.6c-9.2 0-18 0-27.4 0 0 1.6 0 3.2 0 4.6 0 11.8 0 23.4 0 35.2 0 2.6-0.8 4.4-2.6 6.2-17 17.4-34 34.8-51 52.2-4 4.2-8 8.4-12.6 13.2 1.8 0.2 2.8 0.2 3.8 0.2 8.8 0 17.6-0.2 26.4 0 2.8 0 5-0.8 7-2.8 13.4-14 27.2-27.8 40.6-41.8 0.4-0.4 1-1 1.8-1.8 1.2 1.2 2.6 2.4 3.8 3.6 13 13.4 26.2 26.8 39.2 40.2 1.6 1.8 3.4 2.6 5.8 2.6 9-0.2 17.8 0 26.8 0 1 0 2.2-0.2 3.8-0.2-1.2-1.4-1.8-2.4-2.6-3.2-20.2-20.8-40.4-41.6-60.6-62.2-2-2-2.8-4-2.6-6.6 0.2-11.6 0-23.2 0-34.8 0.4-1.4 0.4-2.8 0.4-4.6zM714.2 270.8c0 22.2 16.6 38.8 38.6 38.8 21.8 0 38.6-16.6 38.6-38.4 0-22.8-17.4-38.8-38.8-38.8-21.6 0-38.4 17-38.4 38.4zM784.8 270.8c0 17.8-14.2 32.2-31.8 32.4-17.8 0-32-14-32.2-31.8-0.2-18 14-32.6 31.8-32.6 17.6 0 32.2 14.4 32.2 32zM757.4 268.2c6.2-5.2 9-12 13.2-17.8-0.6-0.4-0.8-0.8-1-0.8-7-0.4-6.8-0.4-10.2 5.6-1.4 2.4-3 4.8-4.4 7.2-2.8 4.4-6.6 5.6-12 4.2 0-5.6 0-11 0-16.6-1-0.2-1.4-0.4-2-0.6-5.2-0.4-5.4 0-5.2 5 0.2 3.4 0.2 7 0.2 10.4 0 8 0 16.2 0 24.2 0 0.4 0.2 0.8 0.4 1.2 0.4 0.2 0.8 0.4 1.2 0.4 6.6-0.2 13.4-0.2 20-0.6 4.2-0.2 7.4-2.2 9.2-6.2 2.6-5.6 0.2-12-5.6-14.8-1.2 0.2-2.2-0.2-3.8-0.8zM743 273.4c4.6-0.2 8.8-0.8 13 0.4 3.2 1 4.6 2.8 4.4 5.8-0.2 2.8-1.6 4.6-4.8 5.4-4.2 0.8-8.2 0.6-12.6 0.2 0-3.8 0-7.6 0-11.8z" />
<glyph unicode="&#xe923;" glyph-name="pin" d="M511 393.2c-85.2 0-154.8 66.8-154.8 149s69.4 149 154.8 149c85.4 0 154.8-66.8 154.8-149-0.2-82.2-69.6-149-154.8-149zM512 896c-204 0-369.2-156.6-369.2-349.8 0-192.8 365.2-610.2 369.2-610.2v0c0 0 369.2 417 369.2 610.2s-165.2 349.8-369.2 349.8z" />
<glyph unicode="&#xe924;" glyph-name="more-selected" d="M140.4 339.6c-59.8 0-108.4 48.6-108.4 108.4s48.6 108.4 108.4 108.4c59.8 0 108.4-48.6 108.4-108.4s-48.6-108.4-108.4-108.4zM140.4 540.4c-51 0-92.4-41.4-92.4-92.4s41.4-92.4 92.4-92.4c51 0 92.4 41.4 92.4 92.4s-41.4 92.4-92.4 92.4zM512 339.6c-59.8 0-108.4 48.6-108.4 108.4s48.6 108.4 108.4 108.4c59.8 0 108.4-48.6 108.4-108.4s-48.6-108.4-108.4-108.4zM512 540.4c-51 0-92.4-41.4-92.4-92.4s41.4-92.4 92.4-92.4c51 0 92.4 41.4 92.4 92.4s-41.4 92.4-92.4 92.4zM883.6 339.6c-59.8 0-108.4 48.6-108.4 108.4s48.6 108.4 108.4 108.4 108.4-48.6 108.4-108.4c0-59.8-48.6-108.4-108.4-108.4zM883.6 540.4c-51 0-92.4-41.4-92.4-92.4s41.4-92.4 92.4-92.4 92.4 41.4 92.4 92.4c0 51-41.4 92.4-92.4 92.4z" />
<glyph unicode="&#xe925;" glyph-name="more" d="M248.8 448c0-59.868-48.532-108.4-108.4-108.4s-108.4 48.532-108.4 108.4c0 59.868 48.532 108.4 108.4 108.4s108.4-48.532 108.4-108.4zM620.4 448c0-59.868-48.532-108.4-108.4-108.4s-108.4 48.532-108.4 108.4c0 59.868 48.532 108.4 108.4 108.4s108.4-48.532 108.4-108.4zM992 448c0-59.868-48.532-108.4-108.4-108.4s-108.4 48.532-108.4 108.4c0 59.868 48.532 108.4 108.4 108.4s108.4-48.532 108.4-108.4z" />
<glyph unicode="&#xe926;" glyph-name="play-round" d="M512-52c-275.6 0-500 224.2-500 500s224.4 500 500 500 500-224.4 500-500-224.4-500-500-500zM512 885.6c-241.2 0-437.6-196.4-437.6-437.6s196.2-437.6 437.6-437.6 437.6 196.4 437.6 437.6c0 241.2-196.4 437.6-437.6 437.6zM761.2 441.8l-394.2 250.8v-501.6l394.2 250.8zM665 441.8l-248.6-165.8v331.4l248.6-165.6z" />
<glyph unicode="&#xe927;" glyph-name="infinite" d="M783.988 207.988c-64.104 0-124.372 24.96-169.7 70.288l-102.288 102.282-102.276-102.27c-45.332-45.336-105.6-70.3-169.706-70.3-64.118 0-124.39 24.964-169.722 70.3s-70.296 105.604-70.296 169.712 24.964 124.38 70.296 169.714c45.334 45.332 105.608 70.296 169.714 70.296 64.108 0 124.38-24.964 169.712-70.296l102.278-102.276 102.276 102.276c45.332 45.332 105.604 70.298 169.712 70.298 64.112 0 124.384-24.966 169.71-70.298 45.338-45.334 70.302-105.606 70.302-169.714 0-64.112-24.964-124.382-70.3-169.71-45.326-45.336-105.598-70.302-169.712-70.302zM681.72 345.712c27.322-27.31 63.64-42.354 102.268-42.352 38.634 0 74.958 15.044 102.276 42.362 27.316 27.322 42.364 63.644 42.364 102.278s-15.046 74.956-42.364 102.274c-27.32 27.318-63.64 42.364-102.276 42.364-38.632 0-74.956-15.044-102.278-42.364l-102.268-102.274 102.278-102.288zM240.012 592.638c-38.634 0-74.956-15.044-102.274-42.364-27.32-27.318-42.364-63.64-42.364-102.274 0-38.632 15.044-74.954 42.364-102.276 27.32-27.316 63.642-42.364 102.274-42.364 38.634 0 74.956 15.044 102.272 42.362l102.276 102.278-102.276 102.274c-27.318 27.32-63.64 42.366-102.272 42.364v0z" />
<glyph unicode="&#xe928;" glyph-name="follow" d="M543.2 340.4v-102.6h28.6c36-8 74-16.8 110-25.6 14.8 18.8 32.6 35.2 52.8 48.6-63 16.2-126 30.4-147.8 35.2 103 57.4 166.6 195.8 166.6 325.8 0 169.2-49 306.2-270.2 306.2-221 0-270.2-137-270.2-306.2 0-130.2 64-269.2 167.6-326.2-52.6-11.4-275.4-61.2-301.4-85.4-47-44-66-175.8-19-241.8h599c-9.8 18.6-17.2 38.8-21.6 60h-539.8c-12.2 45.4 0.4 112.8 20 135.6 30.8 15.4 166 49.8 280.4 74.2h25v102.6c-93.4 39.2-150 166.2-150 280 0 136.6 35 247.6 209.8 247.6s209.8-110.8 209.8-247.6c0.2-114.2-56.4-241.2-149.6-280.4zM963 147.8h-90v90c0 16.6-13.4 30-30 30s-30-13.4-30-30v-90h-90c-16.6 0-30-13.4-30-30s13.4-30 30-30h90v-90c0-16.6 13.4-30 30-30s30 13.4 30 30v90h90c16.6 0 30 13.4 30 30s-13.4 30-30 30z" />
<glyph unicode="&#xe929;" glyph-name="users" d="M594.8 290.6c-50 12.8-99.2 23.8-116.4 27.6 17.4 9.6 33.4 22.2 47.8 36.8-9.4 13.6-17.8 28.4-25 44.2-16.8-19.6-36.6-35-58.8-44.4v-84.6h23.6c8.6-2 18.2-3 28.2-3.8 43.6 11 85.8 20.6 100.8 23.8 0 0.4 0 0.4-0.2 0.4zM600.2 289.4c-1.8 0.4-3.6 1-5.2 1.4 0 0 0.2 0 0.2-0.2-15.2-3.4-57.2-12.8-100.8-23.8 24.2-1.8 50.4-1.6 71.4-6.8 12 15.4 17.6 18.2 34.4 29.4zM517.2 529c0 57.8 8.6 109.4 40.2 142.6-4 17-9.6 33-17.4 47-52.8-40-67.4-109.6-67.4-189 0-44.4 10.2-90 28.6-130.6 11.2 13 21.2 28 29.6 44.2-8.8 28-13.6 57.4-13.6 85.8zM393 838.8c-182 0-222.6-112.8-222.6-252.2 0-107.2 52.8-221.8 138-268.6-43.4-9.4-226.8-50.4-248.2-70.4-38.8-36.2-54.4-144.8-15.6-199.2h493.4c-8 15.4-14.2 32-17.8 49.4h-444.6c-10 37.4 0.4 93 16.4 111.6 25.4 12.6 136.8 41 231 61.2h20.6v84.6c-77 32.2-123.6 136.8-123.6 230.6 0 112.6 28.8 204 172.8 204 79 0 123.4-27.6 147.4-71 13 9.8 28.2 17.8 46.2 23.8-30.2 58.6-88.2 96.2-193.4 96.2zM967.8 227.6c-19 17.8-182.8 54.4-221.4 62.8 76 41.8 123 144 123 239.6 0 124.2-36.2 224.8-198.4 224.8-33.4 0-61.4-4.2-84.8-12 6.8-13 12-27.2 16.2-42.2 18.8 6.8 41.4 10.4 68.8 10.4 128.4 0 154-81.6 154-181.8 0-83.6-41.6-176.8-110.2-205.6v-75.6h18.4c84-18 183.4-43.2 206-54.4 14.4-16.8 23.6-66.2 14.6-99.6h-396.2c-3.2-15.6-8.6-30.4-15.8-44h440c34.4 48.4 20.4 145.2-14.2 177.6zM594.8 290.6c1.8-0.4 3.6-1 5.2-1.4-16.6-11-22.2-14-34.4-29.4-21 5.2-47.4 5-71.4 6.8-2.6-0.6-25.6 4.4-28.2 3.8l161-22.6v75.4c-29.4 12.4-53.8 36.6-72 66.8-8.8-12.6-18.4-24.2-28.8-34.8 18.6-27 41.8-49.6 68.6-64.6zM540.2 718.8c7.8-14.2 13.4-30 17.4-47 11.6 12.2 26.4 22 45 28.6-4.2 15-9.6 29.2-16.2 42.2-18-6-33.2-14-46.2-23.8zM501.2 399.2c7.2-15.6 15.4-30.4 25-44.2 10.4 10.6 20 22.2 28.8 34.8-10 16.4-18 34.4-24.2 53.4-8.4-16-18.4-30.8-29.6-44z" />
<glyph unicode="&#xe92a;" glyph-name="list" d="M182.2 688c66.2 0 120 53.8 120 120s-53.8 120-120 120c-66.2 0-120-53.8-120-120s53.8-120 120-120zM182.2 868c33.2 0 60-26.8 60-60s-26.8-60-60-60c-33.2 0-60 26.8-60 60s26.8 60 60 60zM182.2 208c-66.2 0-120-53.8-120-120s53.8-120 120-120c66.2 0 120 53.8 120 120s-53.8 120-120 120zM182.2 28c-33.2 0-60 26.8-60 60s26.8 60 60 60c33.2 0 60-26.8 60-60s-26.8-60-60-60zM182.2 568c-66.2 0-120-53.8-120-120s53.8-120 120-120c66.2 0 120 53.8 120 120s-53.8 120-120 120zM182.2 388c-33.2 0-60 26.8-60 60s26.8 60 60 60c33.2 0 60-26.8 60-60s-26.8-60-60-60zM152.4 708.6v-146.2c0-3.2 13.4-5.6 30-5.6s30 2.6 30 5.6v146.2c0 3.2-13.4 5.6-30 5.6s-30-2.6-30-5.6zM152.4 338.6v-146.2c0-3.2 13.4-5.6 30-5.6s30 2.6 30 5.6v146.2c0 3.2-13.4 5.6-30 5.6s-30-2.6-30-5.6zM422.4 778h510.8c16.6 0 30 13.4 30 30s-13.4 30-30 30h-510.8c-16.6 0-30-13.4-30-30s13.4-30 30-30zM933.2 478h-510.8c-16.6 0-30-13.4-30-30s13.4-30 30-30h510.8c16.6 0 30 13.4 30 30s-13.4 30-30 30zM933.2 118h-510.8c-16.6 0-30-13.4-30-30s13.4-30 30-30h510.8c16.6 0 30 13.4 30 30s-13.4 30-30 30z" />
<glyph unicode="&#xe92b;" glyph-name="casque" d="M1020.2 352c2.6 21 4.4 42.2 4.4 64 0 282.8-229.2 512-512 512s-512-229.2-512-512c0-21.8 1.8-43 4.4-64h1.4c-3.6-10-5.8-20.8-5.8-32v-256c0-53 43-96 96-96h128c53 0 96 43 96 96v256c0 53-43 96-96 96h-128c-11.2 0-21.8-2.2-31.8-5.8 0 2-0.2 3.8-0.2 5.8 0 247.4 200.6 448 448 448s448-200.6 448-448c0-2-0.2-3.8-0.2-5.8-10 3.6-20.6 5.8-31.8 5.8h-128c-53 0-96-43-96-96v-256c0-53 43-96 96-96h128c53 0 96 43 96 96v256c0 11.2-2.4 22-5.8 32h1.4zM96.6 352h128c17.6 0 32-14.4 32-32v-256c0-17.6-14.4-32-32-32h-128c-17.6 0-32 14.4-32 32v256c0 17.6 14.4 32 32 32zM960.6 64c0-17.6-14.4-32-32-32h-128c-17.6 0-32 14.4-32 32v256c0 17.6 14.4 32 32 32h128c17.6 0 32-14.4 32-32v-256z" />
<glyph unicode="&#xe92c;" glyph-name="user" d="M917.2 210.2c-25.4 24-255.4 76-301.2 86 103.2 57.4 166.6 195.8 166.6 325.8 0 169.2-49.2 306.2-270.2 306.2s-270.2-137.2-270.2-306.2c0-130.4 64-269.2 167.6-326.4-52.6-11.4-275.4-61.2-301.4-85.6-47-44-66-175.8-19-241.8h846.4c46.6 66.2 28 198.2-18.6 242zM898 28.4h-770.8c-12.2 45.4 0.4 112.8 20 135.6 30.8 15.4 166 49.8 280.6 74.2h25v102.6c-93.4 39.2-150 166.2-150 280.2 0 136.8 35 247.6 210 247.6s209.8-110.8 209.8-247.6c0-114-56.4-240.8-149.8-280v-102.8h28.6c113.2-24.8 246.6-59.2 277.6-74.4 19-22.6 31.2-90 19-135.4z" />
<glyph unicode="&#xe92d;" glyph-name="nearme" d="M491.8 409.8c-1 1.4-1.8 2.4-2.4 3.2-20.6 32.6-41 65.4-61.8 98-2.2 3.6-1.6 5.8 0.8 8.8 10.2 12.8 14.6 27.4 12.4 43.8-4.4 34.6-35.6 54.8-66 49.8-45.6-7.6-64.2-59.2-34.6-94.6 2.6-3 3-5.2 1.2-8.8-18.2-34-36.2-68.2-54.2-102.4-1.8-3.2-3.6-4.2-7.4-4-7 0.4-14.4 0.8-21.4-0.6-27.8-5.4-48.8-32-45.8-62.6 3-30.2 31-55.4 63.8-51.2 23.8 3 40.6 16.2 48.2 39 7.6 22.6 2.2 42.6-14.4 59.6-1.6 1.8-3.2 3.4-5 5.4 19.4 36.6 38.4 72.6 57.2 108.2 1.2 0.2 1.8 0.4 2.2 0.4 1.4-0.2 2.6-0.6 3.8-0.8 10.2-2.4 20.2-2.6 30.4 0.2 7 1.8 7 1.8 10.6-4 20-31.8 40-63.4 59.8-95.2 0.8-1.2 1.4-2.6 2.2-4.2-10.8-12-18-25.2-17.6-41.6s5.8-30.6 17.6-42c22.6-21.8 56.4-19.4 76.2-4.2 11.6 9 18.2 21.4 21.2 35.4 4.4 19.8-3 36.4-15.6 51.6 23 34.4 46 68.8 69 103.2 14.4-5.8 28.4-6.2 42.8-2 18.4-37.4 36.6-74 54.6-110.8-1.6-1.4-2.8-2.4-3.8-3.6-1.2-1.2-2.6-2.4-3.8-3.8-14-14.6-19-32-15.2-51.8 6.4-32.6 39.8-52.8 71.8-44 34.2 9.4 49.8 45.2 39.2 75-7.4 20.8-29 41-60.4 38-5-0.4-7.6 0.8-9.8 5.4-16.6 33.8-33.2 67.6-50 101.4-2 4.2-2.2 6.8 1.2 10.6 10 11 14.6 24 14.8 39 0.4 35.6-35 66.2-74.4 54.6-38.2-11.4-53.2-56.8-29.8-89.4 4-5.6 4-5.6 0.4-11-20.8-31.2-41.6-62.4-62.6-93.6-1-1.6-2.4-3-3.8-4.8-13.6 5.2-27.8 4.6-41.6 0.4zM512-32c-264.6 0-480 215.4-480 480s215.4 480 480 480c264.6 0 480-215.4 480-480s-215.4-480-480-480zM512 868c-231.6 0-420-188.4-420-420s188.4-420 420-420c231.6 0 420 188.4 420 420s-188.4 420-420 420z" />
<glyph unicode="&#xe92e;" glyph-name="stack" d="M1024 640l-512 256-512-256 512-256 512 256zM512 811.030l342.058-171.030-342.058-171.030-342.058 171.030 342.058 171.030zM921.444 499.278l102.556-51.278-512-256-512 256 102.556 51.278 409.444-204.722zM921.444 307.278l102.556-51.278-512-256-512 256 102.556 51.278 409.444-204.722z" />
<glyph unicode="&#xe92f;" glyph-name="online" d="M880 448c0-203.241-164.759-368-368-368s-368 164.759-368 368c0 203.241 164.759 368 368 368s368-164.759 368-368z" />
<glyph unicode="&#xe930;" glyph-name="back" d="M790.4 32.2l-428 415.8 428 415.6-62.6 64.4-494.2-480 494.2-480z" />
<glyph unicode="&#xe931;" glyph-name="replay-one" d="M1024 448c0 141.4-114.6 256-256 256h-128v-64h128c106 0 192-86 192-192 0-18.1-2.5-35.7-7.2-52.3 18.1-19.2 32.4-41.9 41.7-67 18.8 35.6 29.5 76.2 29.5 119.3zM64 448c0 106 86 192 192 192h256v64l-160 192-32-64 106.6-128h-170.6c-141.4 0-256-114.6-256-256s114.6-256 256-256h64v64h-64c-106 0-192 86-192 192zM448 256v-64l160-192 32 64-106.6 128h87.2c-7.2 20-11.2 41.6-11.6 64h-161zM952.8 395.7c-36.3 38.5-87.7 62.5-144.8 62.5-109.9 0-199-89.1-199-199 0-1.1 0-2.1 0-3.2 0.4-22.4 4.4-44 11.6-64 27.6-76.8 101-131.8 187.4-131.8 109.9 0 199 89.1 199 199 0 24.4-4.4 47.8-12.5 69.5-9.3 25.1-23.7 47.8-41.7 67zM866.9 169.4h-108.2v25.1h39.6v114c0 4.4 0.1 9.1 0.4 13.9l-28.1-23.5c-1.2-1-2.4-1.7-3.6-2-1.2-0.4-2.4-0.5-3.6-0.5-1.8 0-3.4 0.4-4.9 1.1-1.5 0.8-2.6 1.6-3.3 2.6l-10.5 14.5 59.6 50.7h27.5v-170.8h35.2v-25.1z" />
<glyph unicode="&#xe932;" glyph-name="mood-nostalgic" d="M512 948c-276.8 0-500-223.2-500-500s223.2-500 500-500c275.8 0 500 223.2 500 500s-224.2 500-500 500zM512 34.8c-227.8 0-413.2 185.8-413.2 413.2s185.4 413.2 413.2 413.2 413.2-185.6 413.2-413.2-185.4-413.2-413.2-413.2zM359.6 495.2c9 4.8 14.2 12.8 16.2 22 3 13 9.6 13 20.4 9.6 18.2-5.8 33.8-15.8 48.4-28 10.4-8.8 21.6-8.2 31 1.8 9 9.6 8.6 20.8-0.6 29.6-33.4 31.4-72.8 48.8-119.4 46.6-43 0.4-80-14.4-112-42.6-16.6-14.8-14.2-33.4 4.8-41 10.6-4.2 18.2 1.4 25 8.2 6.6 6.4 10.8 7.4 18-1.2 17.4-20.8 43.6-22 68.2-5zM801.6 537c-33.6 29.6-72.4 45.4-117.4 44.6-42.4-1.8-80-15.6-111.6-44.2-15.8-14.4-13.4-32.2 4.6-40 11.2-4.8 19 1.4 26.6 8.2 5 4.6 8.6 8.4 15.6 0.2 18.2-21.2 39.8-23.8 65.2-10 12.6 4.8 18.8 15.4 21.8 27.4 2.4 9.8 7.4 10.8 15.6 8.4 18.8-5.4 35.4-14.8 50.2-27.6 12.2-10.6 24.8-10 33.4 0.8 9.4 12 6.6 23-4 32.2zM664.2 313.2c-41.2-38.8-94.4-60-150-60s-108.8 21.2-150 60c-17.8 15.6-44.4 15.6-61.2-2.2-15.6-17.8-15.6-44.4 2.2-61.2 56.6-53.4 131.2-83.4 208.8-83.4s152.2 28.8 208.8 82.2c17.8 16.6 18.8 44.4 2.2 62.2-16.4 17.8-43 19-60.8 2.4z" />
<glyph unicode="&#xe933;" glyph-name="arrow-bottom" d="M105.2 683.8c-16.8 15.8-44 15.8-60.8 0-8.4-8-12.4-18.4-12.4-28.8s4.2-20.8 12.4-28.8l437.2-414c16.8-15.8 44-15.8 60.8 0l437 414c16.8 15.8 16.8 41.6 0 57.6-16.8 15.8-44 15.8-60.8 0l-406.6-385.2-406.8 385.2z" />
<glyph unicode="&#xe934;" glyph-name="wand" d="M831.8 445.6c4.8 9.6 2.4 21.6-4.8 28.8l-107.8 105.4 60 139c4.8 9.6 2.4 21.6-7.2 28.8-7.2 7.2-19.2 9.6-28.8 4.8l-131.8-71.8-112.6 100.6c-7.2 7.2-19.2 9.6-28.8 4.8s-14.4-16.8-12-26.4l26.4-148.6-129.4-76.6c-9.6-4.8-14.4-16.8-12-26.4s9.6-19.2 21.6-19.2l117.4-16.8-441-448.2c-9.6-9.6-9.6-24 0-33.6 4.8-4.8 12-7.2 16.8-7.2s12 2.4 16.8 7.2l445.8 445.8 26.4-119.8c2.4-9.6 12-19.2 21.6-19.2 2.4 0 2.4 0 2.4 0 9.6 0 19.2 4.8 21.6 14.4l64.8 136.6 148.6-14.4c11.6-2.4 23.6 4.8 26 12zM647.4 496c-9.6 2.4-19.2-4.8-24-14.4l-43.2-86.2-21.6 95.8c-2.4 9.6-12 16.8-21.6 19.2l-95.8 14.4 83.8 50.4c9.6 4.8 14.4 16.8 12 26.4l-16.8 95.8 71.8-64.8c7.2-7.2 19.2-9.6 28.8-4.8l86.2 45.6-38.4-91c-4.8-9.6-2.4-19.2 4.8-26.4l69.4-67-95.4 7zM697.6 366.6c-12-7.2-14.4-24-7.2-33.6l55.2-83.8c4.8-7.2 12-12 21.6-12 4.8 0 9.6 2.4 14.4 4.8 12 7.2 14.4 24 7.2 33.6l-57.6 83.8c-7.2 12-21.6 16.8-33.6 7.2zM587.4 889v-98.2c0-14.4 12-24 24-24s24 12 24 24v98.2c0 14.4-12 24-24 24-12-0.2-24-12-24-24zM846.2 587l129.4 33.6c14.4 4.8 21.6 16.8 16.8 28.8s-16.8 21.6-28.8 16.8l-129.4-33.6c-14.4-4.8-21.6-16.8-16.8-28.8 2.4-12 12-19.2 24-19.2 0 0 2.4 0 4.8 2.4zM268.6 694.8c-14.4 2.4-26.4-7.2-28.8-19.2-2.4-14.4 7.2-26.4 19.2-28.8l95.8-16.8c2.4 0 2.4 0 4.8 0 12 0 21.6 9.6 24 21.6 2.4 14.4-7.2 26.4-19.2 28.8l-95.8 14.4z" />
<glyph unicode="&#xe935;" glyph-name="mail" d="M877.8 836.6h-731.6c-63 0-114.2-51.4-114.2-114.4v-548.6c0-63 51.2-114.2 114.2-114.2h731.4c63 0 114.2 51.2 114.2 114.2v548.6c0.2 63-51 114.4-114 114.4zM146.2 790.8h731.4c34 0 62.2-24.8 67.6-57.4l-433.2-303.2-433.4 303.4c5.4 32.4 33.8 57.2 67.6 57.2zM877.8 105.2h-731.6c-37.8 0-68.6 30.8-68.6 68.6v504.6l434.2-304 434.2 304v-504.6c0.2-37.8-30.4-68.6-68.2-68.6z" />
<glyph unicode="&#xe936;" glyph-name="loupe" d="M979.6 40.2l-249 249c56.2 69.8 87 156.6 87 246 0 216.6-176.2 392.8-392.8 392.8s-392.8-176.2-392.8-392.8 176.2-392.8 392.8-392.8c89.4 0 176.2 30.8 246 87l249-249c8.2-8.2 19-12.4 29.8-12.4s21.6 4.2 29.8 12.4c8 8 12.4 18.6 12.4 29.8 0.2 11.4-4.2 22-12.2 30zM730.4 535.2c0-168.4-137-305.6-305.6-305.6s-305.6 137.2-305.6 305.6 137.2 305.6 305.6 305.6 305.6-137.2 305.6-305.6z" />
<glyph unicode="&#xe947;" glyph-name="location" d="M512 960c-176.732 0-320-143.268-320-320 0-320 320-704 320-704s320 384 320 704c0 176.732-143.27 320-320 320zM512 448c-106.040 0-192 85.96-192 192s85.96 192 192 192 192-85.96 192-192-85.96-192-192-192z" />
<glyph unicode="&#xe948;" glyph-name="location2" d="M512 960c-176.732 0-320-143.268-320-320 0-320 320-704 320-704s320 384 320 704c0 176.732-143.27 320-320 320zM512 444c-108.248 0-196 87.752-196 196s87.752 196 196 196 196-87.752 196-196-87.752-196-196-196zM388 640c0 68.483 55.517 124 124 124s124-55.517 124-124c0-68.483-55.517-124-124-124s-124 55.517-124 124z" />
<glyph unicode="&#xe949;" glyph-name="compass" d="M544.010-64.004c-2.296 0-4.622 0.25-6.94 0.764-14.648 3.25-25.070 16.238-25.070 31.24v480h-480c-15.002 0-27.992 10.422-31.24 25.070-3.25 14.646 4.114 29.584 17.708 35.928l960 448c12.196 5.688 26.644 3.144 36.16-6.372 9.516-9.514 12.060-23.966 6.372-36.16l-448-960c-5.342-11.44-16.772-18.47-28.99-18.47zM176.242 512h367.758c17.674 0 32-14.328 32-32v-367.758l349.79 749.546-749.548-349.788z" />
<glyph unicode="&#xe960;" glyph-name="download" d="M512 384l256 256h-192v256h-128v-256h-192zM744.726 488.728l-71.74-71.742 260.080-96.986-421.066-157.018-421.066 157.018 260.080 96.986-71.742 71.742-279.272-104.728v-256l512-192 512 192v256z" />
<glyph unicode="&#xe961;" glyph-name="upload" d="M448 384h128v256h192l-256 256-256-256h192zM640 528v-98.712l293.066-109.288-421.066-157.018-421.066 157.018 293.066 109.288v98.712l-384-144v-256l512-192 512 192v256z" />
<glyph unicode="&#xe977;" glyph-name="quotes-left" d="M225 512c123.712 0 224-100.29 224-224 0-123.712-100.288-224-224-224s-224 100.288-224 224l-1 32c0 247.424 200.576 448 448 448v-128c-85.474 0-165.834-33.286-226.274-93.726-11.634-11.636-22.252-24.016-31.83-37.020 11.438 1.8 23.16 2.746 35.104 2.746zM801 512c123.71 0 224-100.29 224-224 0-123.712-100.29-224-224-224s-224 100.288-224 224l-1 32c0 247.424 200.576 448 448 448v-128c-85.474 0-165.834-33.286-226.274-93.726-11.636-11.636-22.254-24.016-31.832-37.020 11.44 1.8 23.16 2.746 35.106 2.746z" />
<glyph unicode="&#xe978;" glyph-name="quotes-right" d="M800 320c-123.712 0-224 100.29-224 224 0 123.712 100.288 224 224 224s224-100.288 224-224l1-32c0-247.424-200.576-448-448-448v128c85.474 0 165.834 33.286 226.274 93.726 11.634 11.636 22.252 24.016 31.83 37.020-11.438-1.8-23.16-2.746-35.104-2.746zM224 320c-123.71 0-224 100.29-224 224 0 123.712 100.29 224 224 224s224-100.288 224-224l1-32c0-247.424-200.576-448-448-448v128c85.474 0 165.834 33.286 226.274 93.726 11.636 11.636 22.254 24.016 31.832 37.020-11.44-1.8-23.16-2.746-35.106-2.746z" />
<glyph unicode="&#xe989;" glyph-name="enlarge" d="M1024 960h-416l160-160-192-192 96-96 192 192 160-160zM1024-64v416l-160-160-192 192-96-96 192-192-160-160zM0-64h416l-160 160 192 192-96 96-192-192-160 160zM0 960v-416l160 160 192-192 96 96-192 192 160 160z" />
<glyph unicode="&#xe98a;" glyph-name="shrink" d="M576 512h416l-160 160 192 192-96 96-192-192-160 160zM576 384v-416l160 160 192-192 96 96-192 192 160 160zM448 384.004h-416l160-160-192-192 96-96 192 192 160-160zM448 512v416l-160-160-192 192-96-96 192-192-160-160z" />
<glyph unicode="&#xe98b;" glyph-name="enlarge2" d="M1024 960v-416l-160 160-192-192-96 96 192 192-160 160zM448 288l-192-192 160-160h-416v416l160-160 192 192z" />
<glyph unicode="&#xe98c;" glyph-name="shrink2" d="M448 384v-416l-160 160-192-192-96 96 192 192-160 160zM1024 864l-192-192 160-160h-416v416l160-160 192 192z" />
<glyph unicode="&#xe9c7;" glyph-name="download3" d="M736 512l-256-256-256 256h160v384h192v-384zM480 256h-480v-256h960v256h-480zM896 128h-128v64h128v-64z" />
<glyph unicode="&#xe9c9;" glyph-name="sphere" d="M480 896c-265.096 0-480-214.904-480-480 0-265.098 214.904-480 480-480 265.098 0 480 214.902 480 480 0 265.096-214.902 480-480 480zM751.59 256c8.58 40.454 13.996 83.392 15.758 128h127.446c-3.336-44.196-13.624-87.114-30.68-128h-112.524zM208.41 576c-8.58-40.454-13.996-83.392-15.758-128h-127.444c3.336 44.194 13.622 87.114 30.678 128h112.524zM686.036 576c9.614-40.962 15.398-83.854 17.28-128h-191.316v128h174.036zM512 640v187.338c14.59-4.246 29.044-11.37 43.228-21.37 26.582-18.74 52.012-47.608 73.54-83.486 14.882-24.802 27.752-52.416 38.496-82.484h-155.264zM331.232 722.484c21.528 35.878 46.956 64.748 73.54 83.486 14.182 10 28.638 17.124 43.228 21.37v-187.34h-155.264c10.746 30.066 23.616 57.68 38.496 82.484zM448 576v-128h-191.314c1.88 44.146 7.666 87.038 17.278 128h174.036zM95.888 256c-17.056 40.886-27.342 83.804-30.678 128h127.444c1.762-44.608 7.178-87.546 15.758-128h-112.524zM256.686 384h191.314v-128h-174.036c-9.612 40.96-15.398 83.854-17.278 128zM448 192v-187.34c-14.588 4.246-29.044 11.372-43.228 21.37-26.584 18.74-52.014 47.61-73.54 83.486-14.882 24.804-27.75 52.418-38.498 82.484h155.266zM628.768 109.516c-21.528-35.876-46.958-64.746-73.54-83.486-14.184-9.998-28.638-17.124-43.228-21.37v187.34h155.266c-10.746-30.066-23.616-57.68-38.498-82.484zM512 256v128h191.314c-1.88-44.146-7.666-87.040-17.28-128h-174.034zM767.348 448c-1.762 44.608-7.178 87.546-15.758 128h112.524c17.056-40.886 27.344-83.806 30.68-128h-127.446zM830.658 640h-95.9c-18.638 58.762-44.376 110.294-75.316 151.428 42.536-20.34 81.058-47.616 114.714-81.272 21.48-21.478 40.362-44.938 56.502-70.156zM185.844 710.156c33.658 33.658 72.18 60.932 114.714 81.272-30.942-41.134-56.676-92.666-75.316-151.428h-95.898c16.138 25.218 35.022 48.678 56.5 70.156zM129.344 192h95.898c18.64-58.762 44.376-110.294 75.318-151.43-42.536 20.34-81.058 47.616-114.714 81.274-21.48 21.478-40.364 44.938-56.502 70.156zM774.156 121.844c-33.656-33.658-72.18-60.934-114.714-81.274 30.942 41.134 56.678 92.668 75.316 151.43h95.9c-16.14-25.218-35.022-48.678-56.502-70.156z" />
<glyph unicode="&#xea1c;" glyph-name="play3" d="M222 832l640-384-640-384v768z" />
<glyph unicode="&#xea27;" glyph-name="volume-medium" d="M719.53 128.47c-12.286 0-24.566 4.686-33.942 14.056-18.744 18.744-18.744 49.136 0 67.882 131.006 131.006 131.006 344.17 0 475.176-18.744 18.746-18.744 49.138 0 67.882 18.744 18.742 49.138 18.744 67.882 0 81.594-81.59 126.53-190.074 126.53-305.466 0-115.39-44.936-223.876-126.53-305.47-9.372-9.374-21.656-14.060-33.94-14.060v0zM549.020 218.98c-12.286 0-24.566 4.686-33.942 14.058-18.746 18.746-18.746 49.134 0 67.88 81.1 81.1 81.1 213.058 0 294.156-18.746 18.746-18.746 49.138 0 67.882s49.136 18.744 67.882 0c118.53-118.53 118.53-311.392 0-429.922-9.372-9.368-21.656-14.054-33.94-14.054zM416.006 0c-8.328 0-16.512 3.25-22.634 9.374l-246.626 246.626h-114.746c-17.672 0-32 14.326-32 32v320c0 17.672 14.328 32 32 32h114.746l246.626 246.628c9.154 9.154 22.916 11.89 34.874 6.936 11.958-4.952 19.754-16.622 19.754-29.564v-832c0-12.944-7.796-24.612-19.754-29.564-3.958-1.64-8.118-2.436-12.24-2.436z" />
<glyph unicode="&#xea88;" glyph-name="google" d="M522.2 521.2v-175.6h290.4c-11.8-75.4-87.8-220.8-290.4-220.8-174.8 0-317.4 144.8-317.4 323.2s142.6 323.2 317.4 323.2c99.4 0 166-42.4 204-79l139 133.8c-89.2 83.6-204.8 134-343 134-283 0-512-229-512-512s229-512 512-512c295.4 0 491.6 207.8 491.6 500.2 0 33.6-3.6 59.2-8 84.8l-483.6 0.2z" />
<glyph unicode="&#xea89;" glyph-name="google2" d="M928 960h-832c-52.8 0-96-43.2-96-96v-832c0-52.8 43.2-96 96-96h832c52.8 0 96 43.2 96 96v832c0 52.8-43.2 96-96 96zM519.6 64c-212.2 0-384 171.8-384 384s171.8 384 384 384c103.6 0 190.4-37.8 257.2-100.4l-104.2-100.4c-28.6 27.4-78.4 59.2-153 59.2-131.2 0-238-108.6-238-242.4s107-242.4 238-242.4c152 0 209 109.2 217.8 165.6h-217.8v131.6h362.6c3.2-19.2 6-38.4 6-63.6 0.2-219.4-146.8-375.2-368.6-375.2z" />
<glyph unicode="&#xea8a;" glyph-name="google3" d="M512 960c-282.8 0-512-229.2-512-512s229.2-512 512-512 512 229.2 512 512-229.2 512-512 512zM519.6 64c-212.2 0-384 171.8-384 384s171.8 384 384 384c103.6 0 190.4-37.8 257.2-100.4l-104.2-100.4c-28.6 27.4-78.4 59.2-153 59.2-131.2 0-238-108.6-238-242.4s107-242.4 238-242.4c152 0 209 109.2 217.8 165.6h-217.8v131.6h362.6c3.2-19.2 6-38.4 6-63.6 0.2-219.4-146.8-375.2-368.6-375.2z" />
<glyph unicode="&#xea90;" glyph-name="facebook" d="M608 768h160v192h-160c-123.514 0-224-100.486-224-224v-96h-128v-192h128v-512h192v512h160l32 192h-192v96c0 17.346 14.654 32 32 32z" />
<glyph unicode="&#xea91;" glyph-name="facebook2" d="M928 960h-832c-52.8 0-96-43.2-96-96v-832c0-52.8 43.2-96 96-96h416v448h-128v128h128v64c0 105.8 86.2 192 192 192h128v-128h-128c-35.2 0-64-28.8-64-64v-64h192l-32-128h-160v-448h288c52.8 0 96 43.2 96 96v832c0 52.8-43.2 96-96 96z" />
<glyph unicode="&#xea96;" glyph-name="twitter" d="M1024 733.6c-37.6-16.8-78.2-28-120.6-33 43.4 26 76.6 67.2 92.4 116.2-40.6-24-85.6-41.6-133.4-51-38.4 40.8-93 66.2-153.4 66.2-116 0-210-94-210-210 0-16.4 1.8-32.4 5.4-47.8-174.6 8.8-329.4 92.4-433 219.6-18-31-28.4-67.2-28.4-105.6 0-72.8 37-137.2 93.4-174.8-34.4 1-66.8 10.6-95.2 26.2 0-0.8 0-1.8 0-2.6 0-101.8 72.4-186.8 168.6-206-17.6-4.8-36.2-7.4-55.4-7.4-13.6 0-26.6 1.4-39.6 3.8 26.8-83.4 104.4-144.2 196.2-146-72-56.4-162.4-90-261-90-17 0-33.6 1-50.2 3 93.2-59.8 203.6-94.4 322.2-94.4 386.4 0 597.8 320.2 597.8 597.8 0 9.2-0.2 18.2-0.6 27.2 41 29.4 76.6 66.4 104.8 108.6z" />
<glyph unicode="&#xea9d;" glyph-name="youtube" d="M1013.8 652.8c0 0-10 70.6-40.8 101.6-39 40.8-82.6 41-102.6 43.4-143.2 10.4-358.2 10.4-358.2 10.4h-0.4c0 0-215 0-358.2-10.4-20-2.4-63.6-2.6-102.6-43.4-30.8-31-40.6-101.6-40.6-101.6s-10.2-82.8-10.2-165.8v-77.6c0-82.8 10.2-165.8 10.2-165.8s10-70.6 40.6-101.6c39-40.8 90.2-39.4 113-43.8 82-7.8 348.2-10.2 348.2-10.2s215.2 0.4 358.4 10.6c20 2.4 63.6 2.6 102.6 43.4 30.8 31 40.8 101.6 40.8 101.6s10.2 82.8 10.2 165.8v77.6c-0.2 82.8-10.4 165.8-10.4 165.8zM406.2 315.2v287.8l276.6-144.4-276.6-143.4z" />
<glyph unicode="&#xea9e;" glyph-name="youtube2" horiz-adv-x="2569" d="M344.012 790.601c0.209 0.865 0.344 1.479 0.388 1.8l1.042 7.559-47.349 0.267c-42.779 0.242-55.87-0.007-57.047-1.084-0.565-0.516-15.333-56.633-41.655-158.273-12.556-48.484-23.124-87.206-23.487-86.051s-15.391 56.498-33.397 122.98c-18.006 66.482-33.104 121.243-33.55 121.692-0.623 0.623-57.98 0.9-104.417 0.502-6.735-0.056-10.477 13.11 60.021-211.133 9.759-31.041 24.371-74.997 32.469-97.679 9.333-26.141 15.989-46.323 20.534-63.173 8.038-32.067 8.319-52.163 6.565-75.625-2.026-27.101-2.321-218.438-0.342-221.638 1.512-2.449 91.223-3.589 99.712-1.268 1.358 0.372 2.265 1.691 2.87 8.928 2.119 6.219 2.286 30.969 2.286 133.744v131.281l5.742 18.112c3.756 11.849 13.201 42.995 20.989 69.22 7.789 26.222 17.21 57.619 20.938 69.771 33.834 110.319 66.14 218.831 66.994 225.011l0.693 5.056zM846.122 631.349l-0.021-6.838-1.065-0.014-0.595-188.993-0.577-183.227-14.666-14.929c-16.424-16.719-29.585-23.101-41.488-20.113-12.963 3.254-12.64-1.8-13.722 214.768l-0.998 199.347h-94.316v-6.851h-1.086v-216.289c0-231.737-0.007-231.599 11.752-254.875 9.366-18.536 23.010-27.559 46.391-30.671h0.002c30.79-4.1 64.001 9.849 94.77 39.809l13.373 13.022v-22.445c0-19.396 0.554-22.601 4.070-23.58 5.756-1.605 77.173-1.707 84.89-0.126l6.396 1.314v6.628l1.086 0.223v495.098l-94.195-1.258zM606.892 533.67c-8.935 38.341-25.68 64.115-53.233 81.939-43.281 27.999-92.718 30.957-138.586 8.291-33.425-16.515-54.951-43.914-66.071-84.083-1.326-4.786-2.298-8.812-3.033-14.815-2.83-14.184-3.163-35.351-3.889-133.951-1.121-151.928 0.616-170.003 19.643-204.51 18.664-33.848 57.403-58.661 99.572-63.782 12.696-1.54 38.43 0.858 53.23 4.961 33.632 9.326 65.864 35.906 80.118 66.078 6.158 13.033 9.875 22.096 12.115 38.651 4.175 22.617 4.47 59.175 4.47 152.375-0.002 118.875-0.379 131.862-4.337 148.847zM499.34 223.997c-7.907-6.028-21.734-8.649-32.983-6.249-8.656 1.847-20.338 15.419-23.934 27.801-4.479 15.436-4.823 229.985-0.954 272.059 6.379 21.054 24.19 32.050 43.635 26.813 15.157-4.082 22.915-13.575 27.336-33.457 3.282-14.754 3.67-33.129 2.972-141.26-0.46-71.701-0.716-106.742-3.058-125.553-2.382-11.87-6.319-15.047-13.015-20.154zM2300.389 425.863h45.57l-0.726 41.281c-0.705 37.869-1.263 42.2-6.324 52.472-7.982 16.21-19.759 23.401-38.446 23.401-22.448 0-36.678-10.849-43.388-33.141-2.858-9.486-5.863-74.685-3.707-80.308 1.205-3.144 7.724-3.705 47.021-3.705zM1995.795 519.763c-6.077 12.247-17.385 18.278-30.525 17.806-10.221-0.365-21.561-4.677-32.488-13.010l-8.14-6.177v-296.598l8.14-6.177c18.429-14.052 38.674-17.031 52.619-7.703 5.519 3.691 9.117 8.779 11.919 16.861 3.647 10.524 3.965 24.003 3.489 148.772-0.495 130.043-0.781 137.702-5.014 146.226zM2560.878 653.367c-9.080 108.842-16.303 144.165-38.751 189.544-29.729 60.101-72.692 91.788-133.876 98.747-47.309 5.379-225.315 12.97-390.044 16.631-285.188 6.338-754.057-5.858-813.939-21.173-27.673-7.077-48.426-19.11-70.022-40.604-37.844-37.662-60.391-91.679-69.452-166.396-20.692-170.606-21.134-376.727-1.188-553.515 8.577-76.041 26.243-125.443 59.41-166.159 20.694-25.406 56.352-46.998 88.26-53.442 22.385-4.523 134.42-10.798 297.605-16.668 24.306-0.874 88.667-2.379 143.030-3.344 113.301-2.012 321.627-0.821 440.719 2.519 80.127 2.249 226.201 8.172 253.5 10.282 7.677 0.593 25.469 1.728 39.537 2.523 47.277 2.67 77.353 12.568 105.596 34.76 36.553 28.718 64.857 81.795 76.815 144.037 11.314 58.894 18.887 163.773 20.422 282.851 1.284 99.491-0.426 153.175-7.621 239.409zM1425.273 692.808l-52.982-0.654-2.326-565.143-45.932-0.581c-35.525-0.488-46.307 0.044-47.167 2.326-0.616 1.626-1.356 129.020-1.672 283.153l-0.581 280.246-103.493 1.307v88.304l305.829-1.235 1.307-87.069-52.982-0.654zM1750.216 368.883v-243.035h-83.725v25.583c0 19.247-0.735 25.583-2.979 25.583-1.64 0-9.226-6.344-16.861-14.098-16.557-16.817-36.171-30.367-52.91-36.63-34.662-12.968-67.589-5.4-81.618 18.75-12.838 22.11-13.082 27.052-13.082 256.335v210.547h83.653l0.654-198.265c0.623-194.821 0.714-198.393 5.377-206.333 6.182-10.521 15.608-13.347 30.597-9.231 8.817 2.423 14.836 6.707 29.143 20.931l18.024 17.952v374.946h83.725v-243.035zM2076.757 160.59c-7.372-16.424-23.806-32.509-37.283-36.485-35.167-10.382-63.375-1.923-95.935 28.708-10.103 9.505-19.51 17.224-20.931 17.224-1.712 0-2.616-7.449-2.616-22.094v-22.094h-83.725v655.845h83.725v-106.982c0-58.84 0.786-106.982 1.744-106.982s9.789 7.807 19.624 17.298c22.629 21.841 41.548 31.399 65.557 33.213 42.811 3.24 68.327-18.794 80.018-69.117 3.647-15.696 3.998-33.625 3.998-179.078-0.002-177.178-0.021-177.918-14.175-209.457zM2430.99 257.832c-0.744-18.226-2.954-39.137-4.942-46.514-11.642-43.167-42.635-73.731-87.432-86.269-60.315-16.878-126.704 10.777-153.205 63.812-14.875 29.769-15.408 35.706-15.408 181.185 0 118.617 0.419 133.171 4.214 149.354 10.747 45.788 37.392 75.422 82.49 91.865 13.068 4.765 26.708 7.207 40.337 7.486 48.672 0.998 96.984-25.18 117.229-67.808 13.659-28.76 15.35-41.060 16.717-122.099l1.235-72.678-178.497-1.235-0.654-48.84c-0.93-68.901 3.716-90.088 22.313-102.621 15.645-10.54 39.679-9.745 52.765 1.744 12.263 10.768 15.726 22.336 16.933 56.107l1.091 29.653h86.195l-1.381-33.143z" />
<glyph unicode="&#xeabe;" glyph-name="appleinc" d="M791.498 415.908c-1.294 129.682 105.758 191.876 110.542 194.966-60.152 88.020-153.85 100.078-187.242 101.472-79.742 8.074-155.596-46.948-196.066-46.948-40.368 0-102.818 45.754-168.952 44.552-86.916-1.292-167.058-50.538-211.812-128.38-90.304-156.698-23.126-388.84 64.89-515.926 43.008-62.204 94.292-132.076 161.626-129.58 64.842 2.588 89.362 41.958 167.756 41.958s100.428-41.958 169.050-40.67c69.774 1.296 113.982 63.398 156.692 125.796 49.39 72.168 69.726 142.038 70.924 145.626-1.548 0.706-136.060 52.236-137.408 207.134zM662.562 796.478c35.738 43.358 59.86 103.512 53.28 163.522-51.478-2.096-113.878-34.29-150.81-77.55-33.142-38.376-62.148-99.626-54.374-158.436 57.466-4.484 116.128 29.204 151.904 72.464z" />
<glyph unicode="&#xeac0;" glyph-name="android" d="M896 576c-35.2 0-64-28.8-64-64v-256c0-35.2 28.8-64 64-64s64 28.8 64 64v256c0 35.2-28.8 64-64 64zM128 576c-35.2 0-64-28.8-64-64v-256c0-35.2 28.8-64 64-64s64 28.8 64 64v256c0 35.2-28.802 64-64 64zM224 224c0-53.020 42.98-96 96-96v0-128c0-35.2 28.8-64 64-64s64 28.8 64 64v128h128v-128c0-35.2 28.8-64 64-64s64 28.8 64 64v128c53.020 0 96 42.98 96 96v352h-576v-352zM798.216 639.998c-9.716 87.884-59.004 163.792-129.62 209.646l32.024 64.046c7.904 15.806 1.496 35.028-14.31 42.932s-35.030 1.496-42.932-14.312l-32.142-64.286-8.35 3.316c-28.568 9.502-59.122 14.66-90.886 14.66-31.762 0-62.316-5.158-90.888-14.656l-8.348-3.316-32.142 64.282c-7.904 15.808-27.128 22.212-42.932 14.312-15.808-7.904-22.214-27.126-14.312-42.932l32.022-64.046c-70.616-45.852-119.904-121.762-129.622-209.644v-32h574.222v31.998h-1.784zM416 704c-17.674 0-32 14.328-32 32 0 17.648 14.288 31.958 31.93 31.996 0.032 0 0.062-0.002 0.094-0.002 0.018 0 0.036 0.002 0.052 0.002 17.638-0.042 31.924-14.35 31.924-31.996 0-17.672-14.326-32-32-32zM608 704c-17.674 0-32 14.328-32 32 0 17.646 14.286 31.954 31.924 31.996 0.016 0 0.034-0.002 0.050-0.002 0.032 0 0.064 0.002 0.096 0.002 17.64-0.038 31.93-14.348 31.93-31.996 0-17.672-14.326-32-32-32z" />
<glyph unicode="&#xeac4;" glyph-name="soundcloud2" d="M928 960h-832c-52.8 0-96-43.2-96-96v-832c0-52.8 43.2-96 96-96h832c52.8 0 96 43.2 96 96v832c0 52.8-43.2 96-96 96zM176 256h-32l-16 96 16 96h32l16-96-16-96zM304 256h-32l-16 128 16 128h32l16-128-16-128zM432 256h-32l-16 192 16 192h32l16-192-16-192zM825.2 256c-2 0-301.2 0.2-301.4 0.2-6.4 0.6-11.6 6.2-11.8 12.8v345.2c0 6.4 2.2 9.6 10.4 12.8 21.2 8.2 45 13 69.6 13 100.2 0 182.4-76.8 191.2-175 13 5.4 27.2 8.4 42 8.4 60 0 108.8-48.8 108.8-108.8s-48.8-108.6-108.8-108.6z" />
</font>
</defs>
</svg>
